<?xml version="1.0" standalone="no"?>
<!DOCTYPE svg PUBLIC "-//W3C//DTD SVG 20010904//EN"
 "http://www.w3.org/TR/2001/REC-SVG-20010904/DTD/svg10.dtd">
<svg version="1.0" xmlns="http://www.w3.org/2000/svg"
 width="172.000000pt" height="159.000000pt" viewBox="0 0 172.000000 159.000000"
 preserveAspectRatio="xMidYMid meet">

<g transform="translate(0.000000,159.000000) scale(0.100000,-0.100000)"
fill="#000000" stroke="none">
<path d="M705 1504 c-192 -43 -386 -184 -472 -345 l-22 -43 22 -15 c12 -9 64
-48 115 -88 51 -40 95 -73 98 -73 3 0 12 17 21 38 54 130 205 236 354 248 90
8 182 -13 252 -56 27 -17 51 -30 55 -30 4 0 52 45 107 100 l100 101 -35 29
c-50 42 -133 84 -225 116 -102 34 -263 42 -370 18z"/>
<path d="M862 788 l3 -133 198 -3 c133 -2 196 1 192 8 -3 5 1 10 9 10 10 0 13
-7 11 -21 -5 -27 -15 -37 -16 -18 0 8 -7 -4 -15 -25 -8 -22 -12 -42 -9 -44 3
-3 5 1 5 9 1 9 4 8 11 -5 9 -15 13 -16 21 -5 6 10 7 7 3 -10 -5 -15 -3 -21 3
-17 6 3 12 -9 14 -29 3 -24 0 -35 -9 -35 -9 0 -12 9 -8 28 5 27 5 27 -5 2 -6
-13 -16 -28 -23 -32 -15 -10 9 -28 38 -28 17 0 17 2 5 10 -9 6 -10 10 -3 10
25 0 24 -22 -2 -46 -35 -32 -57 -32 -53 3 3 23 -1 26 -29 29 -34 3 -45 -9 -18
-20 9 -3 15 -11 14 -18 -4 -36 21 -55 64 -49 9 1 17 -1 17 -5 0 -4 -8 -13 -17
-20 -17 -12 -17 -13 2 -20 11 -4 30 -16 43 -28 21 -19 22 -21 5 -27 -16 -7
-16 -8 -1 -8 23 -1 32 17 17 35 -10 12 -9 13 5 8 9 -3 16 -11 16 -16 0 -6 10
2 22 18 13 16 31 38 40 48 10 11 18 25 18 30 0 6 -7 2 -15 -8 -13 -18 -15 -18
-21 -2 -5 14 -9 15 -16 4 -8 -10 -9 -10 -5 2 2 10 16 15 38 15 28 0 34 4 35
23 1 12 5 26 9 30 5 4 5 -2 2 -13 -7 -20 -7 -20 8 0 18 23 15 37 -8 41 -9 1
-15 -2 -12 -6 9 -14 -17 -49 -32 -43 -7 3 -10 9 -7 14 3 5 0 9 -6 9 -17 0 -7
35 10 36 8 1 21 2 28 3 6 0 12 8 12 17 0 9 -5 12 -11 8 -17 -10 -3 53 23 107
18 39 20 51 11 116 -9 76 -4 94 26 86 14 -3 16 -16 13 -81 -2 -42 -9 -93 -17
-113 -8 -20 -11 -39 -8 -43 3 -3 0 -12 -6 -20 -10 -11 -10 -20 -1 -36 6 -12 9
-24 6 -27 -3 -3 -13 9 -21 28 l-16 34 6 -35 c6 -36 26 -57 36 -37 12 22 21 63
11 49 -7 -11 -10 -11 -15 3 -4 9 -3 14 1 11 17 -10 35 14 36 47 1 19 4 33 7
31 16 -9 26 199 13 265 l-6 31 -340 0 -339 0 3 -132z m338 102 l-325 -5 325
-4 c179 -2 328 -3 332 -2 4 0 5 -6 1 -15 -4 -11 -8 -12 -13 -4 -7 12 -31 10
-41 -4 -4 -4 -16 -3 -28 3 -32 18 -520 14 -538 -4 -15 -16 -17 -45 -3 -45 6 0
9 -3 9 -7 -1 -5 -1 -30 0 -56 l1 -48 145 3 c113 2 144 0 140 -9 -2 -7 0 -13 5
-13 6 0 10 -4 10 -8 0 -14 -29 -10 -34 4 -3 8 -12 11 -21 8 -8 -3 -12 -10 -9
-15 3 -5 -39 -9 -95 -9 -83 0 -101 3 -101 15 0 19 -76 21 -83 3 -3 -8 -6 -6
-6 5 -1 10 6 17 17 17 13 0 14 2 3 9 -10 7 -10 10 -1 13 10 3 10 12 2 38 -6
19 -12 60 -14 90 l-4 55 326 -5 325 -5 -325 -5z m238 -67 c3 -10 -49 -13 -235
-13 -173 0 -242 -3 -251 -12 -18 -18 -14 3 5 24 15 17 34 18 246 16 174 -2
231 -6 235 -15z m94 -35 c-6 -6 -7 0 -4 19 5 21 7 23 10 9 2 -10 0 -22 -6 -28z
m-446 -16 c-16 -2 -51 -2 -78 0 -33 2 -48 -1 -48 -9 0 -16 156 -18 165 -3 3 6
40 10 81 10 67 0 75 -2 72 -17 -3 -16 -20 -18 -153 -21 -83 -2 -154 -7 -159
-12 -6 -6 -14 -10 -18 -10 -11 0 -10 54 1 66 6 5 45 7 88 5 43 -3 65 -7 49 -9z
m451 -79 c-3 -10 -5 -2 -5 17 0 19 2 27 5 18 2 -10 2 -26 0 -35z m-284 9 c4 9
6 8 6 -3 1 -9 -6 -19 -14 -23 -8 -3 -15 -4 -15 -2 0 3 -3 13 -7 23 -6 15 -4
16 9 5 13 -10 17 -10 21 0z m32 -1 c3 -5 2 -12 -3 -15 -5 -3 -9 1 -9 9 0 17 3
19 12 6z m-15 -111 c0 -5 -4 -10 -10 -10 -5 0 -10 5 -10 10 0 6 5 10 10 10 6
0 10 -4 10 -10z m103 -172 c-4 -7 -8 -30 -8 -51 -1 -21 -7 -42 -14 -46 -8 -5
-9 -11 -4 -14 6 -4 15 5 22 20 6 14 14 23 17 20 3 -3 -2 -17 -11 -31 -16 -25
-17 -25 -43 -8 -14 9 -23 11 -19 5 5 -8 3 -13 -4 -13 -7 0 -9 9 -5 23 3 12 6
35 6 50 0 16 4 26 8 23 4 -2 19 4 32 15 29 22 34 23 23 7z"/>
<path d="M486 557 c3 -10 9 -15 12 -12 3 3 0 11 -7 18 -10 9 -11 8 -5 -6z"/>
<path d="M1218 533 c-13 -15 -42 -47 -65 -70 -41 -41 -59 -69 -28 -43 13 11
14 10 9 -3 -6 -16 23 -38 48 -36 7 0 0 6 -16 13 -22 10 -25 14 -12 19 9 4 16
2 16 -3 0 -6 5 -10 10 -10 17 0 11 16 -9 26 -20 9 -20 9 0 33 17 20 19 21 19
5 0 -11 11 4 24 31 18 37 25 44 25 28 1 -13 -3 -23 -9 -23 -5 0 -10 -8 -10
-17 1 -15 4 -14 20 6 21 25 26 56 10 66 -5 3 -20 -7 -32 -22z"/>
<path d="M500 526 c0 -2 7 -9 15 -16 13 -11 14 -10 9 4 -5 14 -24 23 -24 12z"/>
<path d="M229 473 c-13 -16 -12 -17 4 -4 9 7 17 15 17 17 0 8 -8 3 -21 -13z"/>
<path d="M531 487 c2 -1 15 -11 29 -22 l25 -20 -19 23 c-11 12 -24 22 -29 22
-6 0 -8 -1 -6 -3z"/>
<path d="M230 444 c0 -13 18 -39 24 -34 2 3 -2 14 -10 24 -8 11 -14 16 -14 10z"/>
<path d="M579 434 c-11 -14 -24 -52 -14 -42 2 1 3 6 2 9 -1 4 7 16 17 28 11
12 17 21 14 21 -3 0 -12 -7 -19 -16z"/>
<path d="M618 429 c6 -9 10 -18 7 -20 -2 -3 5 -6 17 -6 11 -1 19 -1 17 0 -2 1
-15 11 -29 22 -15 12 -20 14 -12 4z"/>
<path d="M1070 405 c-14 -8 -20 -14 -14 -15 5 0 19 7 30 15 24 18 16 19 -16 0z"/>
<path d="M270 380 c6 -11 13 -20 16 -20 2 0 0 9 -6 20 -6 11 -13 20 -16 20 -2
0 0 -9 6 -20z"/>
<path d="M1010 380 c-8 -5 -10 -10 -5 -10 6 0 17 5 25 10 8 5 11 10 5 10 -5 0
-17 -5 -25 -10z"/>
<path d="M758 363 c7 -3 16 -2 19 1 4 3 -2 6 -13 5 -11 0 -14 -3 -6 -6z"/>
<path d="M339 286 c14 -15 26 -26 28 -26 9 0 -24 40 -37 45 -8 4 -4 -5 9 -19z"/>
<path d="M1207 209 c7 -7 15 -10 18 -7 3 3 -2 9 -12 12 -14 6 -15 5 -6 -5z"/>
<path d="M1206 182 c-3 -5 1 -9 9 -9 8 0 12 4 9 9 -3 4 -7 8 -9 8 -2 0 -6 -4
-9 -8z"/>
<path d="M534 172 c3 -5 0 -13 -6 -15 -9 -4 -10 -6 -1 -6 17 -1 25 16 12 25
-7 4 -9 3 -5 -4z"/>
<path d="M590 125 c14 -8 30 -14 35 -14 6 0 -1 6 -15 14 -14 8 -29 14 -35 14
-5 0 1 -6 15 -14z"/>
<path d="M1125 130 c-3 -6 1 -7 9 -4 18 7 21 14 7 14 -6 0 -13 -4 -16 -10z"/>
<path d="M738 83 c7 -3 16 -2 19 1 4 3 -2 6 -13 5 -11 0 -14 -3 -6 -6z"/>
<path d="M817 73 c18 -2 50 -2 70 0 21 2 7 4 -32 4 -38 0 -55 -2 -38 -4z"/>
</g>
</svg>
