<svg width="36" height="29" viewBox="0 0 36 29" fill="none" xmlns="http://www.w3.org/2000/svg">
<path fill-rule="evenodd" clip-rule="evenodd" d="M35.4205 0C35.0458 0.954348 34.0429 1.27247 33.3266 1.83235C31.1224 3.6647 28.8191 6.43867 26.2513 8.1056C24.5992 9.75424 22.8581 11.28 21.0385 12.6737C20.1238 13.4627 19.3523 14.4552 18.4927 15.2187C14.7567 18.5271 11.2191 21.581 7.40591 24.8767C7.02019 25.2075 6.59038 25.5511 6.14955 25.9074C5.11361 26.7217 3.94542 27.8288 2.93151 28.4523C2.50499 28.8083 1.99208 29 1.46576 29C0.939435 29 0.42652 28.8083 0 28.4523C0.165311 26.9762 1.95065 25.5383 3.5707 23.9987C6.28179 21.4537 10.1831 18.0944 12.9934 15.8167C15.1094 14.0607 17.2364 12.2411 19.3523 10.6378C21.4683 9.03449 23.5843 7.30394 25.7333 5.82789C27.2983 4.75902 28.9293 3.93192 30.4612 2.95212C31.9931 1.97232 33.7454 0.954348 35.4205 0Z" fill="url(#paint0_linear_0_21)" style=""/>
<defs>
<linearGradient id="paint0_linear_0_21" x1="33.9515" y1="20.2933" x2="3.82161" y2="4.27339" gradientUnits="userSpaceOnUse">
<stop stop-color="#860752" style="stop-color:#860752;stop-color:color(display-p3 0.5250 0.0263 0.3233);stop-opacity:1;"/>
<stop offset="1" stop-color="#FFD9A8" style="stop-color:#FFD9A8;stop-color:color(display-p3 1.0000 0.8513 0.6583);stop-opacity:1;"/>
</linearGradient>
</defs>
</svg>
