<svg width="36" height="29" viewBox="0 0 36 29" fill="none" xmlns="http://www.w3.org/2000/svg">
<path fill-rule="evenodd" clip-rule="evenodd" d="M35.4205 0C35.0458 0.967073 34.0319 1.27247 33.3266 1.83235C31.1225 3.67742 28.8191 6.45139 26.2513 8.10559C24.5993 9.75423 22.8581 11.28 21.0385 12.6737C20.1238 13.4627 19.3523 14.4679 18.4927 15.2187C14.7567 18.5271 11.2191 21.581 7.40591 24.8767C7.02019 25.2075 6.59038 25.5638 6.13853 25.9074C5.1136 26.7217 3.93439 27.8288 2.9315 28.4523C2.50498 28.8083 1.99207 29 1.46575 29C0.939427 29 0.42652 28.8083 0 28.4523C0.165311 26.9762 1.95066 25.5383 3.55968 24.0114C6.28179 21.4665 10.2272 18.0944 12.9934 15.8167C15.1094 14.0607 17.2253 12.2411 19.3413 10.6378C21.4573 9.03449 23.5843 7.31666 25.7333 5.8406C27.2983 4.75901 28.9293 3.93192 30.4612 2.95213C31.9931 1.97233 33.7454 0.954348 35.4205 0Z" fill="url(#paint0_linear_0_321)" style=""/>
<defs>
<linearGradient id="paint0_linear_0_321" x1="33.9515" y1="20.2933" x2="3.82162" y2="4.27337" gradientUnits="userSpaceOnUse">
<stop stop-color="#860752" style="stop-color:#860752;stop-color:color(display-p3 0.5250 0.0263 0.3233);stop-opacity:1;"/>
<stop offset="1" stop-color="#FFD9A8" style="stop-color:#FFD9A8;stop-color:color(display-p3 1.0000 0.8513 0.6583);stop-opacity:1;"/>
</linearGradient>
</defs>
</svg>
